<?xml version="1.0" encoding="utf-8"?>
<svg width="24" height="24" viewBox="0 0 24 24" fill="none" xmlns="http://www.w3.org/2000/svg">
	<!-- Main triangle outline -->
	<path d="M3 21L3 3L21 21L3 21Z" stroke="white" stroke-width="2" stroke-linejoin="miter" fill="none"/>

	<!-- Tick marks on vertical side (left) -->
	<line x1="3" y1="5" x2="5" y2="5" stroke="white" stroke-width="1.5"/>
	<line x1="3" y1="7" x2="5" y2="7" stroke="white" stroke-width="1.5"/>
	<line x1="3" y1="9" x2="5" y2="9" stroke="white" stroke-width="1.5"/>
	<line x1="3" y1="11" x2="5" y2="11" stroke="white" stroke-width="1.5"/>
	<line x1="3" y1="13" x2="5" y2="13" stroke="white" stroke-width="1.5"/>
	<line x1="3" y1="15" x2="5" y2="15" stroke="white" stroke-width="1.5"/>
	<line x1="3" y1="17" x2="5" y2="17" stroke="white" stroke-width="1.5"/>
	<line x1="3" y1="19" x2="5" y2="19" stroke="white" stroke-width="1.5"/>

	<!-- Tick marks on horizontal side (bottom) -->
	<line x1="5" y1="21" x2="5" y2="19" stroke="white" stroke-width="1.5"/>
	<line x1="7" y1="21" x2="7" y2="19" stroke="white" stroke-width="1.5"/>
	<line x1="9" y1="21" x2="9" y2="19" stroke="white" stroke-width="1.5"/>
	<line x1="11" y1="21" x2="11" y2="19" stroke="white" stroke-width="1.5"/>
	<line x1="13" y1="21" x2="13" y2="19" stroke="white" stroke-width="1.5"/>
	<line x1="15" y1="21" x2="15" y2="19" stroke="white" stroke-width="1.5"/>
	<line x1="17" y1="21" x2="17" y2="19" stroke="white" stroke-width="1.5"/>
	<line x1="19" y1="21" x2="19" y2="19" stroke="white" stroke-width="1.5"/>

	<!-- Right angle indicator square in corner -->
	<path d="M3 18L6 18L6 21" stroke="white" stroke-width="2" fill="none" stroke-linejoin="miter"/>
</svg>